# xmcd
#
# Track frame offsets: 
#        183
#        24673
#        45828
#        52318
#        65525
#        93098
#        105508
#        117165
#        133008
#        149328
#        162575
#        172420
#        189038
#        206863
#        217570
#        239238
#
# Disc length: 3377 seconds
#
# Revision: 3
# Processed by: cddbd v1.5.2PL0 Copyright (c) Steve Scherf et al.
# Submitted via: ExactAudioCopyFreeDBPlugin 1.0
#
DISCID=ea0d2f10
DTITLE=Various Artist - Back To Blues CD2
DYEAR=1990
DGENRE=Blues
TTITLE0=Ten Years After - I Woke Up This Morning
TTITLE1=The Fabulous Thunderbirds - Full Time Lover
TTITLE2=Eric Clapton and Jimmy Page - Choker
TTITLE3=John Lee Hooker - One Bourbon, One Scotch, One Beer
TTITLE4=Fleetwood Mac - Black Magic Woman
TTITLE5=Family - Some Poor Soul
TTITLE6=The Yardbirds - Steeled Blues
TTITLE7=Screaming Jay Hawkins - I Put A Spell On You
TTITLE8=Nina Simone - My Baby Just Cares For Me
TTITLE9=Bobby Womack - Nobody Wants You When You're Down And Out
TTITLE10=Chuck Berry - Worried Life Blues
TTITLE11=Aaron Neville - Cry Me A River
TTITLE12=John Mayall and The Bluesbreakers - Telephone Blues
TTITLE13=Leo Kottke - Sleep Walk
TTITLE14=Eric Burdon Band - Take It Easy
TTITLE15=Aaron Neville - Tell It Like It Is
EXTD=
EXTT0=
EXTT1=
EXTT2=
EXTT3=
EXTT4=
EXTT5=
EXTT6=
EXTT7=
EXTT8=
EXTT9=
EXTT10=
EXTT11=
EXTT12=
EXTT13=
EXTT14=
EXTT15=
PLAYORDER=
